<?xml version="1.0" encoding="UTF-8"?><svg xmlns="http://www.w3.org/2000/svg" viewBox="0 0 355.08 355.08"><defs><style>.cls-1{fill:#fffbf8;}.cls-2{fill:#120500;}</style></defs><g id="Layer_1_Kopie_Kopie_Kopie"><circle class="cls-1" cx="177.54" cy="177.54" r="177.54"/></g><g id="Ebene_4_Kopie_Kopie_Kopie"><path class="cls-2" d="m289.53,177.14v-40.92c0-10.29,2.83-24.96-.51-34.74-1.8-5.66-5.92-7.46-11.32-8.23-12.87-1.8-27.02.26-39.89.77-54.56,2.83-108.86,3.86-163.42,2.57-4.37,0-6.95,3.09-7.46,6.43-.26.77-.51,1.8-.26,2.83,3.09,50.7,4.63,100.88,4.89,151.32,0,4.12,3.6,7.98,7.72,7.72,53.53-2.83,107.31-4.63,160.84-1.8,12.09.77,26.25,3.6,38.34,1.54,5.66-1.03,9.26-2.83,10.81-9.01,2.57-11.07,0-25.99,0-37.57,0-13.64,0-27.28.26-40.92h0Zm-39.37-67.94c1.54,0,3.35,0,5.15.26-27.02,20.84-46.58,49.93-72.31,73.09-5.92,5.4-6.95,7.21-14.15,3.86-4.89-2.32-10.04-6.43-14.41-9.78-8.75-6.43-17.24-13.38-25.22-20.84-14.41-13.38-27.79-27.79-40.15-43.23,53.79.77,107.31-1.54,161.1-3.35h0Zm4.63,139.48c-8.23-.51-16.47-1.03-24.71-1.54-16.73-.77-33.46-1.03-50.18-1.03-30.88,0-62.02,1.29-92.9,2.83-.26-39.89-1.29-79.52-3.35-119.41,10.81,13.12,22.39,25.48,35,36.8,9.01,8.23,18.53,15.96,28.31,23.16,7.46,5.4,19.56,16.98,29.34,16.21,8.49-.77,17.24-12.09,22.9-17.24,9.78-9.01,18.27-18.79,26.76-29.08,14.15-16.98,30.11-33.46,48.9-45.29-.26,2.32-.51,4.89-.51,6.69v107.31c0,6.43,1.03,14.41.26,21.36-6.69.77-14.15-.26-19.82-.77h0Z"/><path class="cls-2" d="m165.23,159.64c4.63,6.18,9.26,9.52,16.73,4.89,9.52-5.92,27.28-24.71,15.96-36.29-8.23-8.49-18.01-2.57-24.45,5.4-3.86-3.86-8.49-6.69-14.15-5.66-6.43,1.03-10.29,7.72-8.75,14.15,1.8,7.72,10.04,11.84,14.67,17.5h0Z"/></g></svg>