<?xml version="1.0" encoding="UTF-8"?><svg xmlns="http://www.w3.org/2000/svg" viewBox="0 0 355.08 355.08"><defs><style>.cls-1{fill:#fffbf8;}.cls-2{fill:#120500;}</style></defs><g id="Layer_1_Kopie_Kopie_Kopie"><circle class="cls-1" cx="177.54" cy="177.54" r="177.54"/></g><g id="Ebene_3_Kopie_Kopie_Kopie"><path class="cls-2" d="m135.92,72.94c-11.21.53-18.86,2.32-25.55,4.94-6.92,2.7-12.79,6.32-18.63,12.18-5.85,5.87-9.44,11.75-12.11,18.68-2.59,6.71-4.35,14.36-4.85,25.58-.49,11.23-.6,14.82-.55,43.42.05,28.6.18,32.19.72,43.43.54,11.2,2.32,18.85,4.94,25.55,2.7,6.92,6.32,12.79,12.18,18.63,5.86,5.84,11.75,9.43,18.68,12.11,6.7,2.59,14.36,4.35,25.57,4.85,11.23.49,14.82.6,43.41.55,28.61-.05,32.19-.18,43.43-.71,11.21-.54,18.85-2.33,25.55-4.94,6.92-2.71,12.79-6.32,18.63-12.18,5.84-5.86,9.43-11.75,12.11-18.68,2.59-6.7,4.36-14.36,4.85-25.56.49-11.24.61-14.83.55-43.43-.05-28.6-.18-32.18-.72-43.41-.53-11.21-2.33-18.86-4.94-25.56-2.71-6.92-6.32-12.79-12.18-18.63-5.86-5.84-11.75-9.44-18.68-12.11-6.7-2.59-14.36-4.36-25.57-4.85-11.23-.5-14.82-.61-43.42-.55-28.6.05-32.18.18-43.42.72m1.23,190.4c-10.27-.45-15.84-2.15-19.56-3.58-4.92-1.9-8.43-4.19-12.13-7.86-3.69-3.68-5.98-7.18-7.9-12.09-1.44-3.72-3.18-9.29-3.66-19.55-.52-11.1-.64-14.43-.69-42.56-.05-28.12.05-31.45.53-42.56.44-10.26,2.16-15.84,3.58-19.56,1.9-4.93,4.18-8.43,7.86-12.13,3.68-3.7,7.18-5.98,12.1-7.9,3.71-1.45,9.28-3.17,19.55-3.66,11.11-.53,14.44-.64,42.55-.69,28.12-.05,31.45.04,42.56.53,10.26.45,15.84,2.15,19.55,3.58,4.92,1.9,8.44,4.17,12.13,7.86,3.69,3.68,5.98,7.18,7.9,12.1,1.45,3.7,3.17,9.28,3.66,19.54.53,11.11.65,14.44.7,42.56.05,28.12-.05,31.45-.54,42.56-.45,10.27-2.15,15.85-3.58,19.57-1.9,4.92-4.18,8.43-7.86,12.12-3.68,3.68-7.18,5.98-12.1,7.9-3.71,1.45-9.28,3.17-19.54,3.66-11.11.52-14.44.64-42.56.69-28.12.05-31.44-.05-42.55-.53m85.86-142.11c.01,6.98,5.69,12.62,12.66,12.61,6.98-.01,12.63-5.68,12.62-12.66-.01-6.98-5.69-12.63-12.66-12.61-6.98.01-12.63,5.69-12.61,12.66m-97.55,56.4c.06,29.87,24.32,54.03,54.18,53.97,29.87-.06,54.04-24.31,53.98-54.18-.06-29.86-24.32-54.04-54.19-53.98-29.86.06-54.03,24.32-53.97,54.19m18.97-.04c-.03-19.39,15.66-35.14,35.04-35.17,19.39-.04,35.14,15.65,35.18,35.04.04,19.39-15.65,35.14-35.04,35.17-19.38.04-35.14-15.65-35.17-35.04"/></g></svg>