<?xml version="1.0" encoding="UTF-8"?><svg xmlns="http://www.w3.org/2000/svg" viewBox="0 0 355.08 355.08"><defs><style>.cls-1{fill:#fffbf8;}.cls-2{fill:#120500;fill-rule:evenodd;}</style></defs><g id="Layer_1_Kopie_Kopie_Kopie"><circle class="cls-1" cx="177.54" cy="177.54" r="177.54"/></g><g id="Ebene_2_Kopie_Kopie_Kopie"><path class="cls-2" d="m256.61,101.19c-19.36-19.39-45.12-30.07-72.56-30.08-56.54,0-102.56,46.01-102.58,102.57,0,18.08,4.72,35.73,13.69,51.28l-14.55,53.16,54.38-14.26c14.98,8.17,31.85,12.48,49.02,12.48h.04c56.53,0,102.56-46.02,102.58-102.58,0-27.41-10.65-53.18-30.02-72.57h0Zm-72.56,157.82h-.03c-15.3,0-30.3-4.12-43.4-11.88l-3.11-1.85-32.27,8.46,8.61-31.46-2.03-3.23c-8.53-13.57-13.04-29.27-13.03-45.37.02-47.01,38.27-85.25,85.3-85.25,22.77,0,44.18,8.89,60.28,25.01,16.1,16.11,24.96,37.54,24.95,60.32-.02,47.01-38.27,85.26-85.26,85.26h0Zm46.77-63.85c-2.56-1.28-15.16-7.48-17.51-8.34-2.35-.86-4.06-1.28-5.76,1.28-1.71,2.57-6.62,8.34-8.12,10.05-1.5,1.71-2.99,1.92-5.55.64-2.56-1.28-10.82-3.99-20.61-12.72-7.62-6.8-12.76-15.19-14.26-17.76-1.5-2.57-.16-3.95,1.12-5.23,1.15-1.15,2.56-3,3.85-4.49,1.28-1.5,1.71-2.57,2.56-4.27.86-1.71.43-3.21-.21-4.49-.64-1.28-5.76-13.9-7.9-19.03-2.08-5-4.2-4.32-5.76-4.4-1.5-.07-3.2-.09-4.91-.09s-4.49.64-6.84,3.21c-2.35,2.57-8.97,8.77-8.97,21.38s9.18,24.8,10.47,26.52c1.28,1.71,18.08,27.6,43.78,38.7,6.11,2.64,10.89,4.22,14.61,5.4,6.14,1.95,11.73,1.68,16.14,1.02,4.92-.74,15.16-6.2,17.3-12.19,2.13-5.99,2.13-11.12,1.5-12.19s-2.35-1.71-4.91-3h0Z"/></g></svg>